<?xml version="1.0" encoding="UTF-8"?>
<svg version="1.1" xmlns="http://www.w3.org/2000/svg" width="64" height="64">
<path d="M0 0 C9.9 0 19.8 0 30 0 C30 0.99 30 1.98 30 3 C30.66 3 31.32 3 32 3 C33.14077657 6.42232972 33.09815117 9.08673217 33.0625 12.6875 C33.05347656 13.86699219 33.04445312 15.04648438 33.03515625 16.26171875 C33.02355469 17.16535156 33.01195312 18.06898437 33 19 C33.66 19 34.32 19 35 19 C35 18.01 35 17.02 35 16 C36.32 16 37.64 16 39 16 C40.14077657 19.42232972 40.09815117 22.08673217 40.0625 25.6875 C40.05347656 26.86699219 40.04445312 28.04648437 40.03515625 29.26171875 C40.02355469 30.16535156 40.01195312 31.06898437 40 32 C40.66 32 41.32 32 42 32 C42 37.28 42 42.56 42 48 C41.34 48 40.68 48 40 48 C39.67 49.98 39.34 51.96 39 54 C38.34 54 37.68 54 37 54 C37 55.32 37 56.64 37 58 C36.34 58 35.68 58 35 58 C35 58.99 35 59.98 35 61 C34.34 61 33.68 61 33 61 C33 61.99 33 62.98 33 64 C32.01 64 31.02 64 30 64 C30 63.01 30 62.02 30 61 C29.34 61 28.68 61 28 61 C28 60.01 28 59.02 28 58 C27.34 58 26.68 58 26 58 C26 59.98 26 61.96 26 64 C24.35 64 22.7 64 21 64 C21 63.01 21 62.02 21 61 C20.34 61 19.68 61 19 61 C19 60.01 19 59.02 19 58 C16.36 58 13.72 58 11 58 C11 58.99 11 59.98 11 61 C10.34 61 9.68 61 9 61 C9 61.99 9 62.98 9 64 C7.35 64 5.7 64 4 64 C4 62.02 4 60.04 4 58 C3.34 58 2.68 58 2 58 C1.67 59.98 1.34 61.96 1 64 C-1.64 64 -4.28 64 -7 64 C-7 63.01 -7 62.02 -7 61 C-8.98 61 -10.96 61 -13 61 C-13 61.99 -13 62.98 -13 64 C-15.97 64 -18.94 64 -22 64 C-22 44.86 -22 25.72 -22 6 C-19.03 6 -16.06 6 -13 6 C-13 5.01 -13 4.02 -13 3 C-8.71 3 -4.42 3 0 3 C0 2.01 0 1.02 0 0 Z " fill="#FF7F00" transform="translate(22,0)"/>
<path d="M0 0 C0.66 0 1.32 0 2 0 C2.33 15.84 2.66 31.68 3 48 C8.94 48 14.88 48 21 48 C21 47.01 21 46.02 21 45 C20.34 45 19.68 45 19 45 C19 44.01 19 43.02 19 42 C18.34 42 17.68 42 17 42 C17 36.72 17 31.44 17 26 C17.66 26 18.32 26 19 26 C19 21.71 19 17.42 19 13 C19.66 13 20.32 13 21 13 C21 12.01 21 11.02 21 10 C21.99 10 22.98 10 24 10 C24 10.99 24 11.98 24 13 C24.66 13 25.32 13 26 13 C26 13.99 26 14.98 26 16 C26.66 16 27.32 16 28 16 C28 17.32 28 18.64 28 20 C30.31 20 32.62 20 35 20 C35 13.4 35 6.8 35 0 C35.33 0 35.66 0 36 0 C36 4.29 36 8.58 36 13 C36.66 13 37.32 13 38 13 C38 12.01 38 11.02 38 10 C39.32 10 40.64 10 42 10 C43.14077657 13.42232972 43.09815117 16.08673217 43.0625 19.6875 C43.05347656 20.86699219 43.04445312 22.04648437 43.03515625 23.26171875 C43.02355469 24.16535156 43.01195312 25.06898437 43 26 C43.66 26 44.32 26 45 26 C45 31.28 45 36.56 45 42 C44.34 42 43.68 42 43 42 C42.67 43.98 42.34 45.96 42 48 C41.34 48 40.68 48 40 48 C40 49.32 40 50.64 40 52 C39.34 52 38.68 52 38 52 C38 52.99 38 53.98 38 55 C37.34 55 36.68 55 36 55 C36 55.99 36 56.98 36 58 C35.01 58 34.02 58 33 58 C33 57.01 33 56.02 33 55 C32.34 55 31.68 55 31 55 C31 54.01 31 53.02 31 52 C30.34 52 29.68 52 29 52 C29 53.98 29 55.96 29 58 C27.35 58 25.7 58 24 58 C24 57.01 24 56.02 24 55 C23.34 55 22.68 55 22 55 C22 54.01 22 53.02 22 52 C19.36 52 16.72 52 14 52 C14 52.99 14 53.98 14 55 C13.34 55 12.68 55 12 55 C12 55.99 12 56.98 12 58 C10.35 58 8.7 58 7 58 C7 56.02 7 54.04 7 52 C6.34 52 5.68 52 5 52 C4.67 53.98 4.34 55.96 4 58 C1.36 58 -1.28 58 -4 58 C-4 57.01 -4 56.02 -4 55 C-5.98 55 -7.96 55 -10 55 C-10 55.99 -10 56.98 -10 58 C-12.97 58 -15.94 58 -19 58 C-19 51.73 -19 45.46 -19 39 C-16.03 39 -13.06 39 -10 39 C-10 38.01 -10 37.02 -10 36 C-8.35 36 -6.7 36 -5 36 C-5 34.68 -5 33.36 -5 32 C-5.66 32 -6.32 32 -7 32 C-7 31.01 -7 30.02 -7 29 C-7.66 29 -8.32 29 -9 29 C-10.00496852 25.98509443 -10.10335303 23.95818308 -10.0625 20.8125 C-10.05347656 19.91144531 -10.04445313 19.01039062 -10.03515625 18.08203125 C-10.02355469 17.39496094 -10.01195312 16.70789063 -10 16 C-7.69 16 -5.38 16 -3 16 C-2.67 18.31 -2.34 20.62 -2 23 C-1.34 23 -0.68 23 0 23 C0 15.41 0 7.82 0 0 Z " fill="#121212" transform="translate(19,6)"/>
<path d="M0 0 C0.33 0 0.66 0 1 0 C1 4.29 1 8.58 1 13 C1.66 13 2.32 13 3 13 C3 12.01 3 11.02 3 10 C4.32 10 5.64 10 7 10 C8.14077657 13.42232972 8.09815117 16.08673217 8.0625 19.6875 C8.05347656 20.86699219 8.04445313 22.04648437 8.03515625 23.26171875 C8.02355469 24.16535156 8.01195313 25.06898437 8 26 C8.66 26 9.32 26 10 26 C10 31.28 10 36.56 10 42 C9.34 42 8.68 42 8 42 C7.67 43.98 7.34 45.96 7 48 C0.4 48 -6.2 48 -13 48 C-13 47.01 -13 46.02 -13 45 C-13.99 45 -14.98 45 -16 45 C-16 44.01 -16 43.02 -16 42 C-16.66 42 -17.32 42 -18 42 C-18 36.72 -18 31.44 -18 26 C-17.34 26 -16.68 26 -16 26 C-16 21.71 -16 17.42 -16 13 C-15.34 13 -14.68 13 -14 13 C-14 12.01 -14 11.02 -14 10 C-13.01 10 -12.02 10 -11 10 C-11 10.99 -11 11.98 -11 13 C-10.34 13 -9.68 13 -9 13 C-9 13.99 -9 14.98 -9 16 C-8.34 16 -7.68 16 -7 16 C-7 17.32 -7 18.64 -7 20 C-4.69 20 -2.38 20 0 20 C0 13.4 0 6.8 0 0 Z " fill="#696969" transform="translate(54,6)"/>
<path d="M0 0 C7.26 0 14.52 0 22 0 C22 1.32 22 2.64 22 4 C22.66 4 23.32 4 24 4 C24 4.99 24 5.98 24 7 C24.66 7 25.32 7 26 7 C26 11.29 26 15.58 26 20 C24.35 20 22.7 20 21 20 C21 18.68 21 17.36 21 16 C20.34 16 19.68 16 19 16 C19 15.01 19 14.02 19 13 C18.34 13 17.68 13 17 13 C17 12.01 17 11.02 17 10 C16.01 10 15.02 10 14 10 C14 10.99 14 11.98 14 13 C13.34 13 12.68 13 12 13 C12 17.29 12 21.58 12 26 C11.34 26 10.68 26 10 26 C10 31.28 10 36.56 10 42 C10.66 42 11.32 42 12 42 C12 42.99 12 43.98 12 45 C8.04 45 4.08 45 0 45 C0 44.01 0 43.02 0 42 C-0.66 42 -1.32 42 -2 42 C-2 41.01 -2 40.02 -2 39 C-2.66 39 -3.32 39 -4 39 C-4 28.44 -4 17.88 -4 7 C-3.34 7 -2.68 7 -2 7 C-2 6.01 -2 5.02 -2 4 C-1.34 4 -0.68 4 0 4 C0 2.68 0 1.36 0 0 Z " fill="#DB80FE" transform="translate(26,6)"/>
<path d="M0 0 C9.9 0 19.8 0 30 0 C30 0.99 30 1.98 30 3 C30.66 3 31.32 3 32 3 C32 10.59 32 18.18 32 26 C31.34 26 30.68 26 30 26 C30 21.71 30 17.42 30 13 C29.34 13 28.68 13 28 13 C28 12.01 28 11.02 28 10 C27.34 10 26.68 10 26 10 C26 8.68 26 7.36 26 6 C18.74 6 11.48 6 4 6 C4 7.32 4 8.64 4 10 C3.34 10 2.68 10 2 10 C2 10.99 2 11.98 2 13 C1.34 13 0.68 13 0 13 C0 23.56 0 34.12 0 45 C0.66 45 1.32 45 2 45 C2 45.99 2 46.98 2 48 C2.66 48 3.32 48 4 48 C4 48.99 4 49.98 4 51 C8.62 51 13.24 51 18 51 C18 51.99 18 52.98 18 54 C12.06 54 6.12 54 0 54 C-0.93238957 51.20283128 -1.12642612 49.51408771 -1.12939453 46.6237793 C-1.13254669 45.7424382 -1.13569885 44.86109711 -1.13894653 43.95304871 C-1.1369223 43.00303482 -1.13489807 42.05302094 -1.1328125 41.07421875 C-1.13376923 40.09387161 -1.13472595 39.11352448 -1.13571167 38.10346985 C-1.13639243 36.028045 -1.13454538 33.95261803 -1.13037109 31.87719727 C-1.12503856 28.71040006 -1.13031073 25.54374581 -1.13671875 22.37695312 C-1.13605761 20.35937469 -1.13477572 18.34179634 -1.1328125 16.32421875 C-1.13483673 15.38027756 -1.13686096 14.43633636 -1.13894653 13.46379089 C-1.13579437 12.57299332 -1.13264221 11.68219574 -1.12939453 10.7644043 C-1.12859894 9.98735641 -1.12780334 9.21030853 -1.12698364 8.40971375 C-0.97814861 5.58533553 -0.46496917 2.78981502 0 0 Z " fill="#F6B78D" transform="translate(22,0)"/>
<path d="M0 0 C2.64 0 5.28 0 8 0 C8 0.99 8 1.98 8 3 C8.66 3 9.32 3 10 3 C10 4.98 10 6.96 10 9 C9.34 9 8.68 9 8 9 C7.67 13.29 7.34 17.58 7 22 C6.67 21.01 6.34 20.02 6 19 C4.02 19 2.04 19 0 19 C0 19.99 0 20.98 0 22 C-2.97 22 -5.94 22 -9 22 C-9 15.73 -9 9.46 -9 3 C-6.03 3 -3.06 3 0 3 C0 2.01 0 1.02 0 0 Z " fill="#3E40FD" transform="translate(9,42)"/>
<path d="M0 0 C0.66 0 1.32 0 2 0 C2.33 15.84 2.66 31.68 3 48 C1.35 48 -0.3 48 -2 48 C-2 47.01 -2 46.02 -2 45 C-1.34 45 -0.68 45 0 45 C0 43.02 0 41.04 0 39 C-0.66 39 -1.32 39 -2 39 C-2 38.01 -2 37.02 -2 36 C-2.99 36 -3.98 36 -5 36 C-5 34.68 -5 33.36 -5 32 C-5.66 32 -6.32 32 -7 32 C-7 31.01 -7 30.02 -7 29 C-7.66 29 -8.32 29 -9 29 C-10.00496852 25.98509443 -10.10335303 23.95818308 -10.0625 20.8125 C-10.05347656 19.91144531 -10.04445313 19.01039062 -10.03515625 18.08203125 C-10.02355469 17.39496094 -10.01195312 16.70789063 -10 16 C-7.69 16 -5.38 16 -3 16 C-2.67 18.31 -2.34 20.62 -2 23 C-1.34 23 -0.68 23 0 23 C0 15.41 0 7.82 0 0 Z " fill="#000000" transform="translate(19,6)"/>
<path d="M0 0 C4.29 0 8.58 0 13 0 C13 0.99 13 1.98 13 3 C12.01 3 11.02 3 10 3 C10 5.31 10 7.62 10 10 C6.7 10 3.4 10 0 10 C0 10.99 0 11.98 0 13 C-2.97 13 -5.94 13 -9 13 C-9 9.7 -9 6.4 -9 3 C-6.03 3 -3.06 3 0 3 C0 2.01 0 1.02 0 0 Z " fill="#FB0000" transform="translate(9,3)"/>
<path d="M0 0 C2.64 0 5.28 0 8 0 C8 0.99 8 1.98 8 3 C8.66 3 9.32 3 10 3 C10 4.98 10 6.96 10 9 C6.7 9 3.4 9 0 9 C0 9.99 0 10.98 0 12 C-2.97 12 -5.94 12 -9 12 C-9 9.03 -9 6.06 -9 3 C-6.03 3 -3.06 3 0 3 C0 2.01 0 1.02 0 0 Z " fill="#4DD9FF" transform="translate(9,42)"/>
<path d="M0 0 C0.33 0.99 0.66 1.98 1 3 C1.66 3 2.32 3 3 3 C3 3.99 3 4.98 3 6 C3.66 6 4.32 6 5 6 C5 7.32 5 8.64 5 10 C3.35 10 1.7 10 0 10 C0 10.99 0 11.98 0 13 C-2.97 13 -5.94 13 -9 13 C-9 9.7 -9 6.4 -9 3 C-6.03 3 -3.06 3 0 3 C0 2.01 0 1.02 0 0 Z " fill="#58FE01" transform="translate(9,32)"/>
<path d="M0 0 C0.33 0 0.66 0 1 0 C1 10.56 1 21.12 1 32 C1.66 32 2.32 32 3 32 C3 32.99 3 33.98 3 35 C3.66 35 4.32 35 5 35 C5 35.99 5 36.98 5 38 C9.62 38 14.24 38 19 38 C19 38.99 19 39.98 19 41 C13.06 41 7.12 41 1 41 C-0.29487016 37.11538953 -0.1232604 33.44116044 -0.09765625 29.39453125 C-0.0962413 28.55532639 -0.09482635 27.71612152 -0.09336853 26.85148621 C-0.08777215 24.17178784 -0.07522035 21.4921731 -0.0625 18.8125 C-0.05748453 16.99544392 -0.05292171 15.17838652 -0.04882812 13.36132812 C-0.03780391 8.90751987 -0.02054178 4.45377411 0 0 Z " fill="#FEBD91" transform="translate(21,13)"/>
<path d="M0 0 C9.9 0 19.8 0 30 0 C30 0.99 30 1.98 30 3 C20.1 3 10.2 3 0 3 C0 2.01 0 1.02 0 0 Z " fill="#000000" transform="translate(22,0)"/>
<path d="M0 0 C2.97 0 5.94 0 9 0 C9 2.97 9 5.94 9 9 C6.03 9 3.06 9 0 9 C0 6.03 0 3.06 0 0 Z " fill="#F2FF19" transform="translate(0,26)"/>
<path d="M0 0 C0.66 0 1.32 0 2 0 C2 0.99 2 1.98 2 3 C2.99 3 3.98 3 5 3 C5 2.01 5 1.02 5 0 C5.66 0 6.32 0 7 0 C7 0.99 7 1.98 7 3 C7.99 3 8.98 3 10 3 C10 2.01 10 1.02 10 0 C10.66 0 11.32 0 12 0 C12 1.98 12 3.96 12 6 C8.04 6 4.08 6 0 6 C0 4.02 0 2.04 0 0 Z " fill="#000000" transform="translate(45,45)"/>
<path d="M0 0 C1.32 0 2.64 0 4 0 C4 0.99 4 1.98 4 3 C4.66 3 5.32 3 6 3 C6.33 4.98 6.66 6.96 7 9 C7.66 9 8.32 9 9 9 C9 9.99 9 10.98 9 12 C8.01 12 7.02 12 6 12 C6 11.01 6 10.02 6 9 C5.34 9 4.68 9 4 9 C4 8.01 4 7.02 4 6 C3.34 6 2.68 6 2 6 C2 5.01 2 4.02 2 3 C1.34 3 0.68 3 0 3 C0 2.01 0 1.02 0 0 Z " fill="#818181" transform="translate(10,26)"/>
<path d="M0 0 C1.32 0 2.64 0 4 0 C5.14077657 3.42232972 5.09815117 6.08673217 5.0625 9.6875 C5.05347656 10.86699219 5.04445313 12.04648437 5.03515625 13.26171875 C5.02355469 14.16535156 5.01195312 15.06898437 5 16 C4.34 16 3.68 16 3 16 C3 11.71 3 7.42 3 3 C2.01 3 1.02 3 0 3 C0 2.01 0 1.02 0 0 Z " fill="#1E1E1E" transform="translate(57,16)"/>
<path d="M0 0 C1.65 0 3.3 0 5 0 C4.67 2.31 4.34 4.62 4 7 C2.68 7 1.36 7 0 7 C0 4.69 0 2.38 0 0 Z " fill="#818181" transform="translate(17,54)"/>
<path d="M0 0 C0.33 0 0.66 0 1 0 C1 4.29 1 8.58 1 13 C1.66 13 2.32 13 3 13 C3 13.99 3 14.98 3 16 C2.34 16 1.68 16 1 16 C0.67 17.32 0.34 18.64 0 20 C0 13.4 0 6.8 0 0 Z " fill="#000000" transform="translate(54,6)"/>
<path d="M0 0 C0.66 0 1.32 0 2 0 C2 2.31 2 4.62 2 7 C0.68 7 -0.64 7 -2 7 C-2 5.68 -2 4.36 -2 3 C-1.34 3 -0.68 3 0 3 C0 2.01 0 1.02 0 0 Z " fill="#020202" transform="translate(57,35)"/>
<path d="M0 0 C0.66 0 1.32 0 2 0 C2 2.31 2 4.62 2 7 C0.68 7 -0.64 7 -2 7 C-2 5.68 -2 4.36 -2 3 C-1.34 3 -0.68 3 0 3 C0 2.01 0 1.02 0 0 Z " fill="#020202" transform="translate(45,35)"/>
<path d="M0 0 C2.31 0 4.62 0 7 0 C7 0.99 7 1.98 7 3 C4.69 3 2.38 3 0 3 C0 2.01 0 1.02 0 0 Z " fill="#000000" transform="translate(47,26)"/>
<path d="M0 0 C0.99 0 1.98 0 3 0 C3 1.98 3 3.96 3 6 C2.01 6 1.02 6 0 6 C0 4.02 0 2.04 0 0 Z " fill="#FF7AB8" transform="translate(59,42)"/>
<path d="M0 0 C0.99 0 1.98 0 3 0 C3 1.98 3 3.96 3 6 C2.01 6 1.02 6 0 6 C0 4.02 0 2.04 0 0 Z " fill="#FF7AB8" transform="translate(40,42)"/>
<path d="M0 0 C0.99 0 1.98 0 3 0 C3 2.31 3 4.62 3 7 C2.34 7 1.68 7 1 7 C0.67 4.69 0.34 2.38 0 0 Z " fill="#F1FE19" transform="translate(16,22)"/>
</svg>
